<svg id="logo" xmlns="http://www.w3.org/2000/svg" viewBox="0 0 153.6769 38.0623"><title>logo-awix</title><g id="text"><path id="x" d="M266.6327,216.6932l-9.5298-13.924-9.5873,13.924h-9.6431l13.8098-19.5164-12.9534-18.5459h9.6431l8.7309,13.011,8.6177-13.011h9.7582l-12.9552,18.4892,13.8097,19.5731Z" transform="translate(-122.6564 -178.6309)"/><path id="i" d="M222.3686,216.6932V178.6309h8.1031v38.0623Z" transform="translate(-122.6564 -178.6309)"/><path id="w" d="M195.2803,216.6932l-6.6764-26.1353-6.6188,26.1353h-8.6176l-10.8989-38.0623h9.0728l6.6764,27.5053,7.2467-27.5053h6.3346l7.191,27.5053,6.6188-27.5053h9.1303L203.898,216.6932Z" transform="translate(-122.6564 -178.6309)"/><polygon id="a" points="24.881 0.036 14.723 0.036 0 38.036 9.245 38.036 11.641 31.601 19.802 8.096 27.961 31.598 30.301 38.036 39.546 38.036 24.881 0.036"/></g></svg>