<?xml version='1.0' encoding='iso-8859-1'?>
<!DOCTYPE svg PUBLIC '-//W3C//DTD SVG 1.1//EN' 'http://www.w3.org/Graphics/SVG/1.1/DTD/svg11.dtd'>
<svg version="1.1" xmlns="http://www.w3.org/2000/svg" viewBox="0 0 457.609 457.609" xmlns:xlink="http://www.w3.org/1999/xlink" enable-background="new 0 0 457.609 457.609">
  <path d="m454.68,107.04l-94.05-94.051c-8.377-8.376-19.513-12.989-31.359-12.989-11.846,0-22.982,4.613-31.358,12.989l-284.923,284.924c-8.377,8.376-12.99,19.513-12.99,31.358s4.613,22.982 12.989,31.358l94.051,94.051c1.953,1.953 4.512,2.929 7.071,2.929s5.119-0.976 7.071-2.929c3.905-3.905 3.905-10.237 0-14.142l-74.025-74.024 14.428-14.428 74.025,74.024c1.464,1.465 3.384,2.197 5.303,2.197s3.839-0.732 5.303-2.197c2.929-2.929 2.929-7.677 0-10.606l-74.025-74.024 17.383-17.383 74.025,74.024c1.464,1.465 3.384,2.197 5.303,2.197s3.839-0.732 5.303-2.197c2.929-2.929 2.929-7.677 0-10.606l-74.025-74.024 17.383-17.383 74.024,74.025c1.464,1.465 3.384,2.197 5.303,2.197s3.839-0.732 5.303-2.197c2.929-2.929 2.929-7.677 0-10.606l-74.022-74.027 17.383-17.383 74.024,74.025c1.464,1.465 3.384,2.197 5.303,2.197s3.839-0.732 5.303-2.197c2.929-2.929 2.929-7.677 0-10.606l-74.024-74.025 17.383-17.383 74.024,74.025c1.464,1.465 3.384,2.197 5.303,2.197s3.839-0.732 5.303-2.197c2.929-2.929 2.929-7.677 0-10.606l-74.024-74.025 17.383-17.383 74.024,74.025c1.464,1.465 3.384,2.197 5.303,2.197s3.839-0.732 5.303-2.197c2.929-2.929 2.929-7.677 0-10.606l-74.024-74.025 17.383-17.383 74.024,74.024c1.464,1.465 3.384,2.197 5.303,2.197s3.839-0.732 5.303-2.197c2.929-2.929 2.929-7.677 0-10.606l-74.024-74.024 17.383-17.383 74.024,74.024c1.464,1.465 3.384,2.197 5.303,2.197 1.919,0 3.839-0.732 5.303-2.197 2.929-2.929 2.929-7.677 0-10.606l-74.024-74.024 17.383-17.383 74.024,74.024c1.464,1.465 3.384,2.197 5.303,2.197 1.919,0 3.839-0.732 5.303-2.197 2.929-2.929 2.929-7.677 0-10.606l-74.024-74.024 17.383-17.383 74.024,74.024c1.464,1.465 3.384,2.197 5.303,2.197 1.919,0 3.839-0.732 5.303-2.197 2.929-2.929 2.929-7.677 0-10.606l-74.024-74.025 17.383-17.383 74.024,74.025c1.464,1.465 3.384,2.197 5.303,2.197 1.919,0 3.839-0.732 5.303-2.197 2.929-2.929 2.929-7.677 0-10.606l-74.024-74.025 14.428-14.428 74.025,74.024c3.904,3.905 10.237,3.905 14.142,0 3.907-3.906 3.907-10.238 0.002-14.143zm-421.665,245.332l-5.884-5.884c-4.598-4.599-7.131-10.713-7.131-17.217s2.532-12.617 7.131-17.216l284.925-284.924c4.598-4.598 10.712-7.131 17.215-7.131s12.617,2.533 17.216,7.131l5.884,5.884-319.356,319.357z"/>
</svg>
