<?xml version="1.0" encoding="utf-8"?>
<!-- Generator: Adobe Illustrator 19.0.0, SVG Export Plug-In . SVG Version: 6.00 Build 0)  -->
<svg version="1.1" id="Layer_1" xmlns="http://www.w3.org/2000/svg" xmlns:xlink="http://www.w3.org/1999/xlink" x="0px" y="0px"
	 viewBox="6 -6 512 512" style="enable-background:new 6 -6 512 512;" xml:space="preserve">
<style type="text/css">
	.st0{fill:#EFF2FA;}
	.st1{fill:#D7DEED;}
	.st2{fill:#FF6464;}
	.st3{fill:#FFE182;}
	.st4{fill:#A5D76E;}
	.st5{fill:#543494;}
	.st6{fill:#C7CFE2;}
</style>
<rect x="14.8" y="112.9" class="st0" width="141.2" height="344.3"/>
<path class="st1" d="M491.5,60h-459C17.9,60,6,71.9,6,86.5v353.1c0,14.6,11.9,26.5,26.5,26.5h459c14.6,0,26.5-11.9,26.5-26.5V86.4
	C518,71.8,506.1,60,491.5,60z M500.3,439.6c0,4.9-4,8.8-8.8,8.8h-459c-4.9,0-8.8-4-8.8-8.8V121.8c0-4.9,4-8.8,8.8-8.8h459
	c4.9,0,8.8,4,8.8,8.8V439.6z"/>
<circle class="st2" cx="32.5" cy="86.4" r="8.8"/>
<circle class="st3" cx="59" cy="86.4" r="8.8"/>
<circle class="st4" cx="85.4" cy="86.4" r="8.8"/>
<g>
	<path class="st0" d="M129.6,95.3h-8.8c-4.9,0-8.8-4-8.8-8.8l0,0c0-4.9,4-8.8,8.8-8.8h8.8c4.9,0,8.8,4,8.8,8.8l0,0
		C138.4,91.3,134.5,95.3,129.6,95.3z"/>
	<path class="st0" d="M164.9,95.3h-8.8c-4.9,0-8.8-4-8.8-8.8l0,0c0-4.9,4-8.8,8.8-8.8h8.8c4.9,0,8.8,4,8.8,8.8l0,0
		C173.7,91.3,169.8,95.3,164.9,95.3z"/>
	<path class="st0" d="M456.2,95.3h-8.8c-4.9,0-8.8-4-8.8-8.8l0,0c0-4.9,4-8.8,8.8-8.8h8.8c4.9,0,8.8,4,8.8,8.8l0,0
		C465,91.3,461.1,95.3,456.2,95.3z"/>
	<path class="st0" d="M491.5,95.3h-8.8c-4.9,0-8.8-4-8.8-8.8l0,0c0-4.9,4-8.8,8.8-8.8h8.8c4.9,0,8.8,4,8.8,8.8l0,0
		C500.3,91.3,496.4,95.3,491.5,95.3z"/>
	<path class="st0" d="M412.1,95.3H200.2c-4.9,0-8.8-4-8.8-8.8l0,0c0-4.9,4-8.8,8.8-8.8h211.9c4.9,0,8.8,4,8.8,8.8l0,0
		C420.9,91.3,416.9,95.3,412.1,95.3z"/>
</g>
<path class="st5" d="M129.6,157.1H50.1c-4.9,0-8.8-4-8.8-8.8l0,0c0-4.9,4-8.8,8.8-8.8h79.4c4.9,0,8.8,4,8.8,8.8l0,0
	C138.4,153.1,134.5,157.1,129.6,157.1z"/>
<path class="st6" d="M59,227.7h-8.8c-4.9,0-8.8-4-8.8-8.8l0,0c0-4.9,4-8.8,8.8-8.8H59c4.9,0,8.8,4,8.8,8.8l0,0
	C67.8,223.7,63.8,227.7,59,227.7z"/>
<path class="st1" d="M129.6,227.7H94.3c-4.9,0-8.8-4-8.8-8.8l0,0c0-4.9,4-8.8,8.8-8.8h35.3c4.9,0,8.8,4,8.8,8.8l0,0
	C138.4,223.7,134.5,227.7,129.6,227.7z"/>
<path class="st6" d="M59,263h-8.8c-4.9,0-8.8-4-8.8-8.8l0,0c0-4.9,4-8.8,8.8-8.8H59c4.9,0,8.8,4,8.8,8.8l0,0
	C67.8,259,63.8,263,59,263z"/>
<path class="st1" d="M129.6,263H94.3c-4.9,0-8.8-4-8.8-8.8l0,0c0-4.9,4-8.8,8.8-8.8h35.3c4.9,0,8.8,4,8.8,8.8l0,0
	C138.4,259,134.5,263,129.6,263z"/>
<path class="st6" d="M59,298.3h-8.8c-4.9,0-8.8-4-8.8-8.8l0,0c0-4.9,4-8.8,8.8-8.8H59c4.9,0,8.8,4,8.8,8.8l0,0
	C67.8,294.4,63.8,298.3,59,298.3z"/>
<g>
	<path class="st1" d="M129.6,298.3H94.3c-4.9,0-8.8-4-8.8-8.8l0,0c0-4.9,4-8.8,8.8-8.8h35.3c4.9,0,8.8,4,8.8,8.8l0,0
		C138.4,294.4,134.5,298.3,129.6,298.3z"/>
	<path class="st1" d="M103.1,333.6h-53c-4.9,0-8.8-4-8.8-8.8l0,0c0-4.9,4-8.8,8.8-8.8h53c4.9,0,8.8,4,8.8,8.8l0,0
		C111.9,329.7,108,333.6,103.1,333.6z"/>
	<path class="st1" d="M103.1,368.9h-53c-4.9,0-8.8-4-8.8-8.8l0,0c0-4.9,4-8.8,8.8-8.8h53c4.9,0,8.8,4,8.8,8.8l0,0
		C111.9,365,108,368.9,103.1,368.9z"/>
</g>
<path class="st5" d="M103.1,192.4h-53c-4.9,0-8.8-4-8.8-8.8l0,0c0-4.9,4-8.8,8.8-8.8h53c4.9,0,8.8,4,8.8,8.8l0,0
	C111.9,188.4,108,192.4,103.1,192.4z"/>
<path class="st5" d="M190.9,282.4c0-29.2,16.6-47.4,42.7-47.4c17,0,30.7,8.4,36.6,21.9c2.3,5.2-1.5,11.1-7.2,11.1h-0.2
	c-3.1,0-6-1.8-7.2-4.7c-3.5-8.8-11.8-14.3-22-14.3c-15.8,0-25.9,13-25.9,33.4c0,20.6,10,33.5,25.9,33.5c10.4,0,18.3-4.8,21.9-13.1
	c1.2-2.8,4-4.5,7.1-4.5l0,0c5.8,0,9.6,6.1,7.2,11.3c-6.1,12.8-19.1,20.3-36.2,20.3C207.3,329.9,190.9,311.9,190.9,282.4z"/>
<path class="st5" d="M336.3,291.3c10.9-3.9,17.3-14,17.3-26.2c0-17.5-11.9-28.6-31.7-28.6h-27.7c-5.1,0-9.2,4.1-9.2,9.2v73.9
	c0,4.4,3.3,8.4,7.8,8.7c4.7,0.2,8.6-3.5,8.6-8.2v-26.3h18.2l15.7,30.1c1.4,2.7,4.2,4.4,7.3,4.4l0,0c6.2,0,10.2-6.6,7.2-12.1
	L336.3,291.3z M320.4,281.2h-18.9v-31.3H320c10.4,0,16.8,6,16.8,15.6C336.8,275.4,330.8,281.2,320.4,281.2z"/>
<path class="st5" d="M457.7,328.3L457.7,328.3c-4.1,0-7.4-3.3-7.4-7.4v-57.7h-0.4l-24.4,59.2c-1.3,3.1-4.3,5.2-7.7,5.2l0,0
	c-3.4,0-6.4-2-7.7-5.2l-24.4-59.2h-0.4v57.7c0,4.1-3.3,7.4-7.4,7.4l0,0c-4.1,0-7.4-3.3-7.4-7.4v-73c0-6.3,5.1-11.4,11.4-11.4l0,0
	c4.6,0,8.8,2.8,10.5,7.1l25.2,62.2h0.5l25.2-62.2c1.7-4.3,5.9-7.1,10.5-7.1l0,0c6.3,0,11.3,5.1,11.3,11.3v73
	C465,325,461.7,328.3,457.7,328.3z"/>
</svg>
