<?xml version='1.0' encoding='iso-8859-1'?>
<!DOCTYPE svg PUBLIC '-//W3C//DTD SVG 1.1//EN' 'http://www.w3.org/Graphics/SVG/1.1/DTD/svg11.dtd'>
<svg version="1.1" xmlns="http://www.w3.org/2000/svg" viewBox="0 0 447.904 447.904" xmlns:xlink="http://www.w3.org/1999/xlink" enable-background="new 0 0 447.904 447.904">
  <g>
    <path d="m445.707,129.469c-2.929-2.928-7.677-2.929-10.607,0l-14.143,14.143-7.575-7.575 14.144-14.143c2.929-2.929 2.929-7.678 0-10.607-2.93-2.928-7.678-2.929-10.607,0l-14.144,14.143-7.575-7.575 14.144-14.144c2.929-2.929 2.929-7.677 0-10.606-2.929-2.928-7.677-2.929-10.607,0l-14.143,14.143-7.575-7.575 14.144-14.144c2.929-2.929 2.929-7.677 0-10.606-2.929-2.928-7.677-2.929-10.607,0l-14.143,14.143-7.575-7.575 14.144-14.144c2.929-2.929 2.929-7.677 0-10.606-2.929-2.928-7.677-2.929-10.607,0l-14.143,14.143-7.575-7.575 14.143-14.144c2.929-2.929 2.929-7.678-0.001-10.607-2.928-2.929-7.677-2.928-10.606,0l-14.143,14.143-7.575-7.575 14.143-14.143c2.929-2.929 2.929-7.678 0-10.607-2.93-2.929-7.678-2.929-10.607,0l-14.143,14.143-7.575-7.575 14.143-14.144c2.929-2.929 2.929-7.678-0.001-10.607-2.928-2.929-7.677-2.929-10.606,0l-16.548,16.548c-2.342,0.149-4.643,1.108-6.434,2.898l-255.606,255.609c-36.602,36.602-38.84,94.752-6.719,133.991l-18.332,18.332c-3.905,3.905-3.905,10.237-8.88178e-16,14.142 1.953,1.953 4.512,2.929 7.071,2.929 2.559,0 5.118-0.977 7.071-2.929l18.332-18.332c18.341,15.014 40.812,22.523 63.284,22.523 25.606,0 51.214-9.747 70.708-29.241l255.603-255.605c1.791-1.79 2.75-4.091 2.898-6.434l16.549-16.549c2.929-2.928 2.929-7.677 0.001-10.606zm-289.193,275.052c-31.189,31.19-81.941,31.19-113.131,0-15.109-15.109-23.431-35.198-23.431-56.565 0-21.368 8.321-41.456 23.431-56.565l223.081-223.082 20.327,20.327-58.687,58.687c-1.875,1.875-2.929,4.419-2.929,7.071s1.054,5.196 2.929,7.071l58.334,58.333c1.953,1.953 4.512,2.929 7.071,2.929s5.118-0.976 7.071-2.929l58.686-58.686 20.327,20.328-223.079,223.081zm188.61-257.551l-19.585,19.585-44.191-44.192 19.585-19.585 44.191,44.192zm-90.292,1.909l44.191,44.191-5.514,5.514-44.191-44.191 5.514-5.514zm54.799,33.585l-44.191-44.191 5.302-5.302 44.191,44.192-5.302,5.301zm84.105-15.167l-113.13-113.13 11.31-11.31 113.13,113.13-11.31,11.31z"/>
    <path d="m206.008,209.015l-51.12,51.12c-4.391,4.391-6.81,10.229-6.81,16.439 0,6.21 2.419,12.049 6.81,16.44 4.392,4.391 10.229,6.81 16.439,6.81 6.211,0 12.049-2.418 16.44-6.81l51.121-51.12c4.391-4.391 6.81-10.229 6.81-16.44 0-6.21-2.419-12.048-6.81-16.439-9.063-9.063-23.811-9.066-32.88-2.84217e-14zm-28.847,73.394c-3.214,3.216-8.449,3.217-11.665,0-3.217-3.217-3.217-8.45 0-11.666l35.741-35.741 11.666,11.666-35.742,35.741zm51.121-51.121l-4.772,4.772-11.666-11.666 4.771-4.772c1.609-1.609 3.722-2.413 5.834-2.413s4.226,0.804 5.833,2.412c3.217,3.217 3.217,8.451 0,11.667z"/>
  </g>
</svg>
