<?xml version="1.0" encoding="iso-8859-1"?>
<!-- Generator: Adobe Illustrator 19.0.0, SVG Export Plug-In . SVG Version: 6.00 Build 0)  -->
<svg version="1.1" id="Layer_1" xmlns="http://www.w3.org/2000/svg" xmlns:xlink="http://www.w3.org/1999/xlink" x="0px" y="0px"
	 viewBox="0 0 496 496" style="enable-background:new 0 0 496 496;" xml:space="preserve">
<g>
	<g>
		<g>
			<path d="M453.656,2.208L442.344,13.52C466.624,37.8,480,70.088,480,104.432c0,48.536-16.96,94.448-48,131.056v-67.624
				c0-75.328-128.56-116.368-182.912-130.352c36.272-14.12,64.168-21.704,64.976-21.92l-4.128-15.456
				C299.896,2.808,64,67.056,64,183.864v51.632c-31.04-36.608-48-82.52-48-131.056c0-34.352,13.376-66.64,37.656-90.92L42.344,2.208
				C15.04,29.512,0,65.816,0,104.432c0,58.432,22.728,113.376,64,154.736v24.584c0,60.36,29.984,116.384,80.2,149.856
				c7.632,5.088,15.584,9.536,23.8,13.368v48.888h16v-42.416c19.184,6.8,39.44,10.416,60.112,10.416h7.784
				c20.672,0,40.928-3.616,60.112-10.416v42.416h16v-48.88c8.208-3.832,16.168-8.28,23.8-13.368
				C402.016,400.136,432,344.112,432,283.752v-24.584c41.264-41.36,64-96.296,64-154.736C496,65.816,480.96,29.512,453.656,2.208z
				 M416,283.752c0,54.992-27.32,106.04-73.08,136.544c-27.048,18.04-58.52,27.568-91.032,27.568h-7.784
				c-32.512,0-63.984-9.528-91.032-27.56C107.32,389.792,80,338.744,80,283.752v-99.888c0-60.584,77.784-107.24,143.672-135.896
				C240.28,51.504,416,90.824,416,167.864V283.752z"/>
			<path d="M296,95.864h-96c-57.344,0-104,46.656-104,104v80c0,83.816,68.184,152,152,152s152-68.184,152-152v-80
				C400,142.52,353.344,95.864,296,95.864z M384,279.864c0,74.992-61.008,136-136,136s-136-61.008-136-136v-80
				c0-48.52,39.48-88,88-88h96c48.52,0,88,39.48,88,88V279.864z"/>
			<path d="M240,215.864c0-24.672-21.464-40-56-40s-56,15.328-56,40c0,25.832,14.664,56,56,56S240,241.696,240,215.864z
				 M144,215.864c0-22.264,30.616-24,40-24c9.384,0,40,1.736,40,24c0,9.384-2.88,40-40,40S144,225.248,144,215.864z"/>
			<path d="M220.888,222.192l-9.696-12.728c-0.08,0.072-8.984,6.4-27.192,6.4s-27.112-6.328-27.192-6.4l-9.696,12.728
				c1.272,0.992,13.184,9.672,36.888,9.672S219.616,223.184,220.888,222.192z"/>
			<path d="M312,175.864c-34.536,0-56,15.328-56,40c0,25.832,14.664,56,56,56s56-30.168,56-56
				C368,191.192,346.536,175.864,312,175.864z M312,255.864c-37.12,0-40-30.616-40-40c0-22.264,30.616-24,40-24
				c9.384,0,40,1.736,40,24C352,225.248,349.12,255.864,312,255.864z"/>
			<path d="M312,215.864c-18.208,0-27.112-6.328-27.192-6.4l-9.696,12.728c1.272,0.992,13.184,9.672,36.888,9.672
				c23.704,0,35.616-8.68,36.888-9.672l-9.696-12.728C339.112,209.536,330.208,215.864,312,215.864z"/>
			<path d="M248,295.864c-45.088,0-72,14.952-72,40c0,27.152,25.232,56,72,56s72-28.848,72-56
				C320,310.816,293.088,295.864,248,295.864z M248,375.864c-36.376,0-56-20.608-56-40c0-17.712,30.16-24,56-24
				c25.832,0,56,6.288,56,24C304,355.256,284.376,375.864,248,375.864z"/>
			<rect x="208" y="335.864" width="80" height="16"/>
			<path d="M433.76,84.864l12.488-10c-6.76-8.448-15.112-16.24-25.528-23.832l-9.424,12.92
				C420.416,70.608,427.976,77.648,433.76,84.864z"/>
			<path d="M404,40.184c-28.776-16.592-56.856-23.784-58.048-24.08l-3.912,15.52c0.272,0.072,27.192,6.984,53.96,22.424L404,40.184z
				"/>
			<path d="M32.848,100.264l14.288,7.216c0.032-0.064,3.144-6.136,9.808-14.712l-12.64-9.816
				C36.616,92.864,33.008,99.968,32.848,100.264z"/>
			<path d="M100.12,54.72L91.888,41c-11.832,7.104-22.784,15.568-32.576,25.152l11.2,11.424
				C79.408,68.864,89.368,61.176,100.12,54.72z"/>
		</g>
	</g>
</g>
<g>
</g>
<g>
</g>
<g>
</g>
<g>
</g>
<g>
</g>
<g>
</g>
<g>
</g>
<g>
</g>
<g>
</g>
<g>
</g>
<g>
</g>
<g>
</g>
<g>
</g>
<g>
</g>
<g>
</g>
</svg>
