<?xml version="1.0" encoding="iso-8859-1"?>
<!-- Generator: Adobe Illustrator 19.0.0, SVG Export Plug-In . SVG Version: 6.00 Build 0)  -->
<svg version="1.1" id="Layer_1" xmlns="http://www.w3.org/2000/svg" xmlns:xlink="http://www.w3.org/1999/xlink" x="0px" y="0px"
	 viewBox="0 0 496 496" style="enable-background:new 0 0 496 496;" xml:space="preserve">
<g>
	<g>
		<g>
			<path d="M496,256v-64H336v-8c0-28.624-21.608-52.272-49.36-55.568C297.312,118.224,304,103.896,304,88V24.968
				C304,11.2,292.8,0,279.032,0c-5.616,0-11.144,1.944-15.52,5.416C257.92,1.888,251.456,0,244.688,0h-17.376
				C207.84,0,192,15.84,192,35.312V88c0,15.896,6.688,30.224,17.36,40.432C181.608,131.728,160,155.376,160,184v8H0v64h16v176H0v64
				h496v-64h-16V256H496z M208,35.312C208,24.664,216.664,16,227.312,16h17.376c5.16,0,10.008,2.008,13.656,5.656L264,27.312
				l8.688-8.688c1.672-1.672,3.984-2.624,6.344-2.624c4.944,0,8.968,4.024,8.968,8.968v29.4c-7.944-2.96-15.488-9.192-18.352-12.032
				L264,36.768l-5.64,5.552c-0.2,0.2-19.152,18.472-50.36,21.28V35.312z M208,88v-8.424c27.36-2.064,46.84-14.04,55.904-21.016
				c5.424,4.336,14.208,10.16,24.096,12.432V88c0,22.056-17.944,40-40,40C225.944,128,208,110.056,208,88z M176,184
				c0-22.056,17.944-40,40-40h64c22.056,0,40,17.944,40,40v8h-24v-16h-16v16h-64v-16h-16v16h-24V184z M480,480H16v-32h464V480z
				 M32,432V256h40v176H32z M88,432V256h40v176H88z M144,432V256h40v176H144z M200,432V256h40v176H200z M256,432V256h40v176H256z
				 M312,432V256h40v176H312z M424,272v-16h40v176h-40V288h-16v144h-40V256h40v16H424z M16,240v-32h464v32H16z"/>
			<path d="M448,128c0,21.608-7.096,36.304-7.16,36.424l14.312,7.16C455.512,170.848,464,153.592,464,128
				c0-13.536-4.36-24.44-8.568-34.968C451.608,83.48,448,74.464,448,64c0-20.208,13.544-34.224,13.68-34.368L456,24l-5.656-5.656
				C449.592,19.096,432,37,432,64c0,13.536,4.36,24.44,8.568,34.968C444.392,108.52,448,117.536,448,128z"/>
			<path d="M40,128c0,21.608-7.096,36.304-7.16,36.424l14.312,7.16C47.512,170.848,56,153.592,56,128
				c0-13.536-4.36-24.44-8.568-34.968C43.608,83.48,40,74.464,40,64c0-20.208,13.544-34.224,13.68-34.368L48,24l-5.656-5.656
				C41.592,19.096,24,37,24,64c0,13.536,4.36,24.44,8.568,34.968C36.392,108.52,40,117.536,40,128z"/>
			<path d="M104,128c0,21.608-7.096,36.304-7.16,36.424l14.312,7.16C111.512,170.848,120,153.592,120,128
				c0-13.536-4.36-24.44-8.568-34.968C107.608,83.48,104,74.464,104,64c0-20.208,13.544-34.224,13.68-34.368L112,24l-5.656-5.656
				C105.592,19.096,88,37,88,64c0,13.536,4.36,24.44,8.568,34.968C100.392,108.52,104,117.536,104,128z"/>
			<path d="M384,128h16c0-13.536-4.36-24.44-8.568-34.968C387.608,83.48,384,74.464,384,64c0-20.208,13.544-34.224,13.68-34.368
				L392,24l-5.656-5.656C385.592,19.096,368,37,368,64c0,13.536,4.36,24.44,8.568,34.968C380.392,108.52,384,117.536,384,128z"/>
			<path d="M376.832,164.44l14.328,7.128c0.2-0.416,5.152-10.472,7.544-26.368l-15.832-2.392
				C380.888,156.04,376.864,164.376,376.832,164.44z"/>
		</g>
	</g>
</g>
<g>
</g>
<g>
</g>
<g>
</g>
<g>
</g>
<g>
</g>
<g>
</g>
<g>
</g>
<g>
</g>
<g>
</g>
<g>
</g>
<g>
</g>
<g>
</g>
<g>
</g>
<g>
</g>
<g>
</g>
</svg>
