<?xml version="1.0" encoding="iso-8859-1"?>
<!-- Generator: Adobe Illustrator 19.0.0, SVG Export Plug-In . SVG Version: 6.00 Build 0)  -->
<svg version="1.1" id="Layer_1" xmlns="http://www.w3.org/2000/svg" xmlns:xlink="http://www.w3.org/1999/xlink" x="0px" y="0px"
	 viewBox="0 0 496 496" style="enable-background:new 0 0 496 496;" xml:space="preserve">
<g>
	<g>
		<g>
			<path d="M176,144.472V80h-16V48h-16V17.064c10.6,1.088,21.112,3.008,31.384,5.944l30.424,8.688l4.392-15.392l-30.424-8.688
				C162.096,2.56,143.8,0,125.4,0H72v16h24v32H80v32H64v64.472C28.048,148.464,0,179,0,216v280h240V216
				C240,179,211.944,148.464,176,144.472z M112,16h13.4c0.864,0,1.728,0.08,2.6,0.088V48h-16V16z M96,64h48v16H96V64z M80,96h16v32
				h16V96h16v32h16V96h16v48H80V96z M224,400h-16v16h16v64H16v-64h176v-16H16V248h208V400z M224,232H16v-16
				c0-30.872,25.128-56,56-56h8h80h8c30.872,0,56,25.128,56,56V232z"/>
			<path d="M88,328h24v56h16v-56h24c30.872,0,56-25.128,56-56v-8h-40c-20.384,0-38.2,10.984-48,27.304
				C110.2,274.984,92.384,264,72,264H32v8C32,302.872,57.128,328,88,328z M168,280h23.192c-3.72,18.232-19.872,32-39.192,32h-23.192
				C132.52,293.768,148.68,280,168,280z M72,280c19.32,0,35.48,13.768,39.192,32H88c-19.32,0-35.48-13.768-39.192-32H72z"/>
			<path d="M344,432h24v32h16v-32h24c30.872,0,56-25.128,56-56v-8h-40c-20.384,0-38.2,10.984-48,27.304
				C366.2,378.984,348.384,368,328,368h-40v8C288,406.872,313.128,432,344,432z M424,384h23.192c-3.712,18.232-19.872,32-39.192,32
				h-23.192C388.528,397.768,404.68,384,424,384z M328,384c19.32,0,35.48,13.768,39.192,32H344c-19.32,0-35.48-13.768-39.192-32H328
				z"/>
			<path d="M456,288H296c-22.056,0-40,17.944-40,40v168h240V328C496,305.944,478.056,288,456,288z M480,480H272V352h208V480z
				 M480,336h-16v-16h-16v16h-16v-16h-16v16h-16v-16h-16v16h-16v-16h-16v16h-16v-16h-16v16h-16v-16h-16v16h-16v-8
				c0-13.232,10.768-24,24-24h160c13.232,0,24,10.768,24,24V336z"/>
		</g>
	</g>
</g>
<g>
</g>
<g>
</g>
<g>
</g>
<g>
</g>
<g>
</g>
<g>
</g>
<g>
</g>
<g>
</g>
<g>
</g>
<g>
</g>
<g>
</g>
<g>
</g>
<g>
</g>
<g>
</g>
<g>
</g>
</svg>
