<?xml version="1.0" encoding="utf-8"?>
<!-- Generator: Adobe Illustrator 19.0.0, SVG Export Plug-In . SVG Version: 6.00 Build 0)  -->
<svg version="1.1" id="Layer_1" xmlns="http://www.w3.org/2000/svg" xmlns:xlink="http://www.w3.org/1999/xlink" x="0px" y="0px"
	 viewBox="130 -6 630.4 512" style="enable-background:new 130 -6 630.4 512;" xml:space="preserve">
<style type="text/css">
	.st0{fill:#D7DEED;}
	.st1{fill:#FF6464;}
	.st2{fill:#FFE182;}
	.st3{fill:#A5D76E;}
	.st4{fill:#EFF2FA;}
	.st5{fill:#3EC25F;}
	.st6{fill:#543494;}
</style>
<path class="st0" d="M673,47H214c-14.6,0-26.5,11.9-26.5,26.5v353.1c0,14.6,11.9,26.5,26.5,26.5h459c14.6,0,26.5-11.9,26.5-26.5
	V73.4C699.5,58.8,687.6,47,673,47z M681.8,426.5c0,4.9-4,8.8-8.8,8.8H214c-4.9,0-8.8-4-8.8-8.8V108.8c0-4.9,4-8.8,8.8-8.8h459
	c4.9,0,8.8,4,8.8,8.8V426.5z"/>
<circle class="st1" cx="214" cy="73.4" r="8.8"/>
<circle class="st2" cx="240.5" cy="73.4" r="8.8"/>
<circle class="st3" cx="266.9" cy="73.4" r="8.8"/>
<g>
	<path class="st4" d="M311.1,82.3h-8.8c-4.9,0-8.8-4-8.8-8.8l0,0c0-4.9,4-8.8,8.8-8.8h8.8c4.9,0,8.8,4,8.8,8.8l0,0
		C319.9,78.3,316,82.3,311.1,82.3z"/>
	<path class="st4" d="M346.4,82.3h-8.8c-4.9,0-8.8-4-8.8-8.8l0,0c0-4.9,4-8.8,8.8-8.8h8.8c4.9,0,8.8,4,8.8,8.8l0,0
		C355.2,78.3,351.3,82.3,346.4,82.3z"/>
	<path class="st4" d="M637.7,82.3h-8.8c-4.9,0-8.8-4-8.8-8.8l0,0c0-4.9,4-8.8,8.8-8.8h8.8c4.9,0,8.8,4,8.8,8.8l0,0
		C646.5,78.3,642.6,82.3,637.7,82.3z"/>
	<path class="st4" d="M673,82.3h-8.8c-4.9,0-8.8-4-8.8-8.8l0,0c0-4.9,4-8.8,8.8-8.8h8.8c4.9,0,8.8,4,8.8,8.8l0,0
		C681.8,78.3,677.9,82.3,673,82.3z"/>
	<path class="st4" d="M593.6,82.3H381.7c-4.9,0-8.8-4-8.8-8.8l0,0c0-4.9,4-8.8,8.8-8.8h211.9c4.9,0,8.8,4,8.8,8.8l0,0
		C602.4,78.3,598.4,82.3,593.6,82.3z"/>
</g>
<g>
	<g>
		<path class="st5" d="M517.8,224.5l17.8-17.4l60.2,60.2l146.7-146.6v38.6h17.9V90.1h-69.2V108h38.6L595.9,241.9l-60.2-60.2l-18,18
			c-14.5,12.8-14.5,12.8-14.5,12.8"/>
	</g>
</g>
<polygon class="st5" points="143.4,458 130.6,445.3 285.1,290.8 332.7,341.5 355.8,318.8 368.4,331.7 332.1,367.2 284.7,316.7 "/>
<path class="st6" d="M443.3,379.8c-54.9,0-99.5-44.6-99.5-99.5s44.6-99.5,99.5-99.5s99.5,44.6,99.5,99.5S498.2,379.8,443.3,379.8z
	 M443.3,198.8c-44.9,0-81.5,36.6-81.5,81.5s36.6,81.5,81.5,81.5s81.5-36.6,81.5-81.5S488.2,198.8,443.3,198.8z"/>
<path class="st6" d="M439.5,318.3v-10c-8-0.4-12.4-2-16-4l2.4-10.8c4,2,9.2,4,15.2,4c5.2,0,8.8-2,8.8-5.6s-2.8-5.6-10-8
	c-10-3.2-16.4-8-16.4-16.8c0-8,3.6-14.4,15.6-16.4v-8.4h8v8c8,0.4,10.8,1.6,13.6,3.2l-2.4,10.4c-2.4-1.2-6.4-3.2-13.2-3.2
	c-6,0-8,2.4-8,5.2c0,3.2,3.2,4.8,11.2,8c10.8,4,15.2,8.8,15.2,17.2s-4.4,15.2-16.4,17.2v10L439.5,318.3L439.5,318.3z"/>
</svg>
