<?xml version="1.0" encoding="iso-8859-1"?>
<!-- Generator: Adobe Illustrator 19.0.0, SVG Export Plug-In . SVG Version: 6.00 Build 0)  -->
<svg version="1.1" id="Layer_1" xmlns="http://www.w3.org/2000/svg" xmlns:xlink="http://www.w3.org/1999/xlink" x="0px" y="0px"
	 viewBox="0 0 512 512" style="enable-background:new 0 0 512 512;" xml:space="preserve">
<g>
	<g>
		<path d="M464.222,270.066h-46.497V122.395L456.44,11.214c0.899-2.58,0.493-5.437-1.091-7.664C453.766,1.323,451.203,0,448.47,0
			h-81.02c-2.764,0-5.353,1.354-6.929,3.622c-1.578,2.27-1.944,5.167-0.981,7.759l41.307,111.106v147.579h-49.15
			c-4.661,0-8.44,3.779-8.44,8.44v168.791c0,35.678,29.025,64.703,64.703,64.703c35.677,0,64.702-29.025,64.702-64.703V278.505
			C472.662,273.845,468.884,270.066,464.222,270.066z M379.591,16.879h57.002l-27.568,79.17L379.591,16.879z M455.783,447.297
			c0,26.371-21.455,47.824-47.823,47.824c-26.371,0-47.824-21.453-47.824-47.824V286.945h95.647V447.297z"/>
	</g>
</g>
<g>
	<g>
		<path d="M300.738,241.967c-9.103-10.747-22.403-16.912-36.489-16.912h-18.211v-16.879h2.813c4.661,0,8.439-3.779,8.439-8.44
			s-3.779-8.44-8.439-8.44h-2.813v-25.319c0-4.661-3.779-8.44-8.44-8.44h-123.78c-4.662,0-8.44,3.779-8.44,8.44v25.319h-2.813
			c-4.662,0-8.44,3.779-8.44,8.44s3.778,8.44,8.44,8.44h2.813v16.879H87.166c-14.086,0-27.386,6.164-36.49,16.912
			c-9.106,10.747-12.999,24.881-10.683,38.775l37.368,224.206c0.68,4.07,4.2,7.052,8.325,7.052h180.043
			c4.125,0,7.646-2.982,8.325-7.052l37.367-224.206C313.737,266.848,309.844,252.714,300.738,241.967z M122.257,174.418h106.901
			v16.879H122.257V174.418z M294.772,277.966l-36.192,217.154H92.835L56.642,277.966c-1.498-8.991,1.022-18.135,6.914-25.089
			c5.891-6.954,14.497-10.943,23.61-10.943h26.651c4.662,0,8.44-3.779,8.44-8.44v-25.319h106.901v16.879h-81.56
			c-4.662,0-8.44,3.779-8.44,8.44s3.778,8.44,8.44,8.44h90h26.651c9.115,0,17.72,3.988,23.61,10.943
			C293.751,259.832,296.271,268.976,294.772,277.966z"/>
	</g>
</g>
<g>
</g>
<g>
</g>
<g>
</g>
<g>
</g>
<g>
</g>
<g>
</g>
<g>
</g>
<g>
</g>
<g>
</g>
<g>
</g>
<g>
</g>
<g>
</g>
<g>
</g>
<g>
</g>
<g>
</g>
</svg>
