<?xml version="1.0" encoding="utf-8"?>
<!-- Generator: Adobe Illustrator 19.0.0, SVG Export Plug-In . SVG Version: 6.00 Build 0)  -->
<svg version="1.1" id="Слой_1" xmlns="http://www.w3.org/2000/svg" xmlns:xlink="http://www.w3.org/1999/xlink" x="0px" y="0px"
	 viewBox="-14 16 470 470" style="enable-background:new -14 16 470 470;" xml:space="preserve">
<style type="text/css">
	.st0{fill:none;stroke:#000000;stroke-width:15;stroke-miterlimit:10;}
</style>
<path d="M448.5,54h-455c-4.1,0-7.5,3.4-7.5,7.5v410c0,4.1,3.4,7.5,7.5,7.5h455c4.1,0,7.5-3.4,7.5-7.5v-80c0-4.1-3.4-7.5-7.5-7.5
	s-7.5,3.4-7.5,7.5V464H1V129h440v232.5c0,4.1,3.4,7.5,7.5,7.5s7.5-3.4,7.5-7.5v-300C456,57.4,452.6,54,448.5,54z M1,69h277.5v45H1
	V69z M293.5,114V69H441v45H293.5z"/>
<path d="M367.5,83.5c-4.4,0-8,3.6-8,8s3.6,8,8,8s8-3.6,8-8S371.9,83.5,367.5,83.5z"/>
<path d="M326.5,83.5c-4.4,0-8,3.6-8,8s3.6,8,8,8s8-3.6,8-8S330.9,83.5,326.5,83.5z"/>
<path d="M408.5,83.5c-4.4,0-8,3.6-8,8s3.6,8,8,8s8-3.6,8-8S412.9,83.5,408.5,83.5z"/>
<path d="M266.7,181.5h-30c-4.1,0-7.5,3.4-7.5,7.5s3.4,7.5,7.5,7.5h30c4.1,0,7.5-3.4,7.5-7.5S270.9,181.5,266.7,181.5z"/>
<path d="M206.7,181.5H59.2c-4.1,0-7.5,3.4-7.5,7.5s3.4,7.5,7.5,7.5h147.5c4.1,0,7.5-3.4,7.5-7.5S210.9,181.5,206.7,181.5z"/>
<path d="M266.7,251.5h-30c-4.1,0-7.5,3.4-7.5,7.5s3.4,7.5,7.5,7.5h30c4.1,0,7.5-3.4,7.5-7.5S270.9,251.5,266.7,251.5z"/>
<path d="M206.7,251.5H59.2c-4.1,0-7.5,3.4-7.5,7.5s3.4,7.5,7.5,7.5h147.5c4.1,0,7.5-3.4,7.5-7.5S210.9,251.5,206.7,251.5z"/>
<path d="M266.7,315.5h-30c-4.1,0-7.5,3.4-7.5,7.5s3.4,7.5,7.5,7.5h30c4.1,0,7.5-3.4,7.5-7.5S270.9,315.5,266.7,315.5z"/>
<path d="M206.7,315.5H59.2c-4.1,0-7.5,3.4-7.5,7.5s3.4,7.5,7.5,7.5h147.5c4.1,0,7.5-3.4,7.5-7.5S210.9,315.5,206.7,315.5z"/>
<path d="M266.7,384.5h-30c-4.1,0-7.5,3.4-7.5,7.5s3.4,7.5,7.5,7.5h30c4.1,0,7.5-3.4,7.5-7.5S270.9,384.5,266.7,384.5z"/>
<path d="M206.7,384.5H59.2c-4.1,0-7.5,3.4-7.5,7.5s3.4,7.5,7.5,7.5h147.5c4.1,0,7.5-3.4,7.5-7.5S210.9,384.5,206.7,384.5z"/>
<rect x="312" y="181.5" class="st0" width="77" height="218"/>
</svg>
