<?xml version="1.0" encoding="utf-8"?>
<!-- Generator: Adobe Illustrator 19.0.0, SVG Export Plug-In . SVG Version: 6.00 Build 0)  -->
<svg version="1.1" id="Слой_1" xmlns="http://www.w3.org/2000/svg" xmlns:xlink="http://www.w3.org/1999/xlink" x="0px" y="0px"
	 viewBox="-14 16 470 470" style="enable-background:new -14 16 470 470;" xml:space="preserve">
<path d="M448.5,54.5h-455c-4.1,0-7.5,3.4-7.5,7.5v410c0,4.1,3.4,7.5,7.5,7.5h455c4.1,0,7.5-3.4,7.5-7.5v-80c0-4.1-3.4-7.5-7.5-7.5
	s-7.5,3.4-7.5,7.5v72.5H1v-335h440V362c0,4.1,3.4,7.5,7.5,7.5s7.5-3.4,7.5-7.5V62C456,57.9,452.6,54.5,448.5,54.5z M1,69.5h277.5v45
	H1V69.5z M293.5,114.5v-45H441v45H293.5z"/>
<path d="M367.5,84c-4.4,0-8,3.6-8,8s3.6,8,8,8s8-3.6,8-8S371.9,84,367.5,84z"/>
<path d="M326.5,84c-4.4,0-8,3.6-8,8s3.6,8,8,8s8-3.6,8-8S330.9,84,326.5,84z"/>
<path d="M408.5,84c-4.4,0-8,3.6-8,8s3.6,8,8,8s8-3.6,8-8S412.9,84,408.5,84z"/>
<path d="M129,427.7c29.2,0.5,53.3-22.7,53.9-51.9c0.5-29.2-22.7-53.3-51.9-53.9s-53.3,22.7-53.9,51.9C76.6,403,99.9,427.2,129,427.7
	z M167.4,368l-29.8-0.6l0.6-29.8C153.1,341,164.7,353,167.4,368z M123.2,337.4l-0.8,44.7l44.7,0.8c-3.8,17.3-19.4,30.2-37.8,29.8
	C108.4,412.3,91.6,395,92,374C92.4,355.7,105.8,340.6,123.2,337.4z"/>
<path d="M366,180.9h-30c-4.1,0-7.5,3.4-7.5,7.5s3.4,7.5,7.5,7.5h30c4.1,0,7.5-3.4,7.5-7.5S370.1,180.9,366,180.9z"/>
<path d="M303,180.9H155.5c-4.1,0-7.5,3.4-7.5,7.5s3.4,7.5,7.5,7.5H303c4.1,0,7.5-3.4,7.5-7.5S307.1,180.9,303,180.9z"/>
<path d="M366,250.9h-30c-4.1,0-7.5,3.4-7.5,7.5s3.4,7.5,7.5,7.5h30c4.1,0,7.5-3.4,7.5-7.5S370.1,250.9,366,250.9z"/>
<path d="M114.6,180.9h-30c-4.1,0-7.5,3.4-7.5,7.5s3.4,7.5,7.5,7.5h30c4.1,0,7.5-3.4,7.5-7.5S118.7,180.9,114.6,180.9z"/>
<path d="M114.6,250.9h-30c-4.1,0-7.5,3.4-7.5,7.5s3.4,7.5,7.5,7.5h30c4.1,0,7.5-3.4,7.5-7.5S118.7,250.9,114.6,250.9z"/>
<path d="M303,250.9H155.5c-4.1,0-7.5,3.4-7.5,7.5s3.4,7.5,7.5,7.5H303c4.1,0,7.5-3.4,7.5-7.5S307.1,250.9,303,250.9z"/>
<path d="M289.5,413L289.5,413c-4.4,0-8-3.6-8-8v-29c0-4.4,3.6-8,8-8l0,0c4.4,0,8,3.6,8,8v29C297.5,409.5,293.9,413,289.5,413z"/>
<path d="M327.5,413L327.5,413c-4.4,0-8-3.6-8-8v-65c0-4.4,3.6-8,8-8l0,0c4.4,0,8,3.6,8,8v65C335.5,409.5,331.9,413,327.5,413z"/>
<path d="M365.5,412.8L365.5,412.8c-4.4,0-8-3.6-8-8v-43.9c0-4.4,3.6-8,8-8l0,0c4.4,0,8,3.6,8,8v43.9
	C373.5,409.2,369.9,412.8,365.5,412.8z"/>
<path d="M251.5,412.8L251.5,412.8c-4.4,0-8-3.6-8-8v-23.1c0-4.4,3.6-8,8-8l0,0c4.4,0,8,3.6,8,8v23.1
	C259.5,409.2,255.9,412.8,251.5,412.8z"/>
</svg>
