<?xml version="1.0" encoding="utf-8"?>
<!-- Generator: Adobe Illustrator 19.0.0, SVG Export Plug-In . SVG Version: 6.00 Build 0)  -->
<svg version="1.1" id="Layer_1" xmlns="http://www.w3.org/2000/svg" xmlns:xlink="http://www.w3.org/1999/xlink" x="0px" y="0px"
	 viewBox="6 -6 512 512" style="enable-background:new 6 -6 512 512;" xml:space="preserve">
<style type="text/css">
	.st0{fill:#D7DEED;}
	.st1{fill:#FF6464;}
	.st2{fill:#FFE182;}
	.st3{fill:#A5D76E;}
	.st4{fill:#EFF2FA;}
	.st5{fill:#543494;}
</style>
<path class="st0" d="M491.5,58.9h-459C17.9,58.9,6,70.8,6,85.4v353.1C6,453.1,17.9,465,32.5,465h459c14.6,0,26.5-11.9,26.5-26.5
	V85.3C518,70.7,506.1,58.9,491.5,58.9z M500.3,438.5c0,4.9-4,8.8-8.8,8.8h-459c-4.9,0-8.8-4-8.8-8.8V120.7c0-4.9,4-8.8,8.8-8.8h459
	c4.9,0,8.8,4,8.8,8.8V438.5z"/>
<circle class="st1" cx="32.5" cy="85.3" r="8.8"/>
<circle class="st2" cx="59" cy="85.3" r="8.8"/>
<circle class="st3" cx="85.4" cy="85.3" r="8.8"/>
<g>
	<path class="st4" d="M129.6,94.2h-8.8c-4.9,0-8.8-4-8.8-8.8l0,0c0-4.9,4-8.8,8.8-8.8h8.8c4.9,0,8.8,4,8.8,8.8l0,0
		C138.4,90.2,134.5,94.2,129.6,94.2z"/>
	<path class="st4" d="M164.9,94.2h-8.8c-4.9,0-8.8-4-8.8-8.8l0,0c0-4.9,4-8.8,8.8-8.8h8.8c4.9,0,8.8,4,8.8,8.8l0,0
		C173.7,90.2,169.8,94.2,164.9,94.2z"/>
	<path class="st4" d="M456.2,94.2h-8.8c-4.9,0-8.8-4-8.8-8.8l0,0c0-4.9,4-8.8,8.8-8.8h8.8c4.9,0,8.8,4,8.8,8.8l0,0
		C465,90.2,461.1,94.2,456.2,94.2z"/>
	<path class="st4" d="M491.5,94.2h-8.8c-4.9,0-8.8-4-8.8-8.8l0,0c0-4.9,4-8.8,8.8-8.8h8.8c4.9,0,8.8,4,8.8,8.8l0,0
		C500.3,90.2,496.4,94.2,491.5,94.2z"/>
	<path class="st4" d="M412.1,94.2H200.2c-4.9,0-8.8-4-8.8-8.8l0,0c0-4.9,4-8.8,8.8-8.8h211.9c4.9,0,8.8,4,8.8,8.8l0,0
		C420.9,90.2,416.9,94.2,412.1,94.2z"/>
</g>
<g>
	<g>
		<path class="st5" d="M365.8,257.4l-16.2-2.8c-1.7-5.5-3.9-10.7-6.5-15.8l9.6-13.4c4.1-5.7,3.4-13.5-1.5-18.4l-14.4-14.4
			c-2.7-2.7-6.3-4.2-10.1-4.2c-3,0-5.8,0.9-8.3,2.7l-13.4,9.6c-5.2-2.8-10.7-5-16.3-6.7l-2.7-16c-1.2-6.9-7.1-11.9-14.1-11.9h-20.3
			c-7,0-12.9,5-14.1,11.9l-2.8,16.4c-5.4,1.7-10.7,3.9-15.7,6.6l-13.3-9.6c-2.4-1.7-5.3-2.7-8.3-2.7c-3.8,0-7.4,1.5-10.1,4.2
			l-14.7,14.5c-4.9,4.9-5.6,12.7-1.5,18.4l9.7,13.6c-2.7,5.1-4.8,10.3-6.4,15.8l-16,2.7c-6.9,1.2-11.9,7.1-11.9,14.1v20.3
			c0,7,5,12.9,11.9,14.1l16.4,2.8c1.7,5.4,3.9,10.7,6.6,15.7l-9.5,13.2c-4.1,5.7-3.4,13.5,1.5,18.4l14.4,14.4
			c2.7,2.7,6.3,4.2,10.1,4.2c3,0,5.8-0.9,8.3-2.7l13.6-9.7c4.9,2.6,10,4.6,15.3,6.3l2.7,16.2c1.2,6.9,7.1,11.9,14.1,11.9h20.4
			c7,0,12.9-5,14.1-11.9l2.8-16.2c5.5-1.7,10.7-3.9,15.8-6.5l13.4,9.6c2.4,1.7,5.3,2.7,8.3,2.7l0,0c3.8,0,7.4-1.5,10.1-4.2
			l14.4-14.4c4.9-4.9,5.6-12.7,1.5-18.4l-9.7-13.4c2.7-5.1,4.9-10.3,6.5-15.8l16.2-2.7c6.9-1.2,11.9-7.1,11.9-14.1v-20.3
			C377.7,264.5,372.7,258.5,365.8,257.4z M364.7,291.8c0,0.6-0.4,1.2-1.1,1.3l-20.3,3.4c-2.6,0.4-4.6,2.3-5.2,4.8
			c-1.8,7.1-4.6,13.9-8.4,20.2c-1.3,2.2-1.2,5,0.3,7.1l11.9,16.8c0.3,0.5,0.3,1.2-0.1,1.6l-14.4,14.4c-0.3,0.3-0.7,0.4-0.9,0.4
			c-0.3,0-0.5-0.1-0.7-0.2L309,349.7c-2.1-1.5-4.9-1.6-7.1-0.3c-6.3,3.8-13.1,6.6-20.2,8.4c-2.5,0.6-4.4,2.7-4.8,5.2l-3.4,20.3
			c-0.1,0.6-0.6,1.1-1.3,1.1h-20.3c-0.6,0-1.2-0.4-1.3-1.1l-3.4-20.3c-0.4-2.6-2.3-4.6-4.8-5.2c-6.9-1.8-13.6-4.5-19.8-8.1
			c-1-0.6-2.2-0.9-3.3-0.9c-1.3,0-2.7,0.4-3.8,1.2l-16.9,12c-0.2,0.1-0.5,0.2-0.7,0.2s-0.6,0-0.9-0.4l-14.4-14.4
			c-0.4-0.4-0.5-1.1-0.1-1.6l11.9-16.7c1.5-2.1,1.6-4.9,0.3-7.2c-3.8-6.3-6.7-13.1-8.5-20.2c-0.7-2.5-2.7-4.3-5.2-4.8l-20.4-3.5
			c-0.6-0.1-1.1-0.6-1.1-1.3v-20.3c0-0.6,0.4-1.2,1.1-1.3l20.1-3.4c2.6-0.4,4.6-2.3,5.3-4.8c1.8-7.1,4.5-14,8.3-20.3
			c1.3-2.2,1.2-5-0.3-7.1L182,218c-0.3-0.5-0.3-1.2,0.1-1.6l14.4-14.4c0.3-0.3,0.7-0.4,0.9-0.4c0.3,0,0.5,0.1,0.7,0.2l16.7,11.9
			c2.1,1.5,4.9,1.6,7.2,0.3c6.3-3.8,13.1-6.7,20.2-8.5c2.5-0.7,4.3-2.7,4.8-5.2l3.5-20.4c0.1-0.6,0.6-1.1,1.3-1.1h20.3
			c0.6,0,1.2,0.4,1.3,1.1l3.4,20.1c0.4,2.6,2.3,4.6,4.8,5.3c7.3,1.8,14.3,4.7,20.7,8.5c2.2,1.3,5,1.2,7.1-0.3l16.7-12
			c0.2-0.1,0.5-0.2,0.7-0.2s0.6,0,0.9,0.4l14.4,14.4c0.4,0.4,0.5,1.1,0.1,1.6l-11.9,16.8c-1.5,2.1-1.6,4.9-0.3,7.1
			c3.8,6.3,6.6,13.1,8.4,20.2c0.6,2.5,2.7,4.4,5.2,4.8l20.3,3.4c0.6,0.1,1.1,0.6,1.1,1.3L364.7,291.8L364.7,291.8z"/>
		<path class="st5" d="M262,231.7c-27.5,0-49.9,22.4-49.9,49.9s22.4,49.9,49.9,49.9s49.9-22.4,49.9-49.9S289.6,231.7,262,231.7z
			 M262,318.5c-20.3,0-36.9-16.5-36.9-36.9s16.5-36.9,36.9-36.9s36.9,16.5,36.9,36.9S282.4,318.5,262,318.5z"/>
	</g>
</g>
<path class="st0" d="M107.4,323.7h-53c-4.9,0-8.8-4-8.8-8.8l0,0c0-4.9,4-8.8,8.8-8.8h53c4.9,0,8.8,4,8.8,8.8l0,0
	C116.3,319.8,112.3,323.7,107.4,323.7z"/>
<path class="st0" d="M113.6,289.7H52.4c-4.3,0-7.9-3.6-7.9-7.9l0,0c0-4.3,3.6-7.9,7.9-7.9h61.2c4.3,0,7.9,3.6,7.9,7.9l0,0
	C121.5,286.1,117.9,289.7,113.6,289.7z"/>
<path class="st0" d="M139.4,218.2h-87c-4.3,0-7.9-3.6-7.9-7.9l0,0c0-4.3,3.6-7.9,7.9-7.9h87c4.3,0,7.9,3.6,7.9,7.9l0,0
	C147.3,214.6,143.7,218.2,139.4,218.2z"/>
<path class="st0" d="M137.1,357.7H53.5c-4.3,0-7.9-3.6-7.9-7.9l0,0c0-4.3,3.6-7.9,7.9-7.9h83.6c4.3,0,7.9,3.6,7.9,7.9l0,0
	C145,354.1,141.4,357.7,137.1,357.7z"/>
<path class="st0" d="M86.3,250.7H53.5c-4.3,0-7.9-3.6-7.9-7.9l0,0c0-4.3,3.6-7.9,7.9-7.9h32.8c4.3,0,7.9,3.6,7.9,7.9l0,0
	C94.2,247.1,90.6,250.7,86.3,250.7z"/>
<path class="st0" d="M127.6,250.7H111c-4.3,0-7.9-3.6-7.9-7.9l0,0c0-4.3,3.6-7.9,7.9-7.9h16.6c4.3,0,7.9,3.6,7.9,7.9l0,0
	C135.5,247.1,131.9,250.7,127.6,250.7z"/>
<path class="st0" d="M414.2,274.4h61.2c4.3,0,7.9,3.6,7.9,7.9l0,0c0,4.3-3.6,7.9-7.9,7.9h-61.2c-4.3,0-7.9-3.6-7.9-7.9l0,0
	C406.3,277.9,409.9,274.4,414.2,274.4z"/>
<path class="st0" d="M446.5,242.8h28.9c4.3,0,7.9,3.6,7.9,7.9l0,0c0,4.3-3.6,7.9-7.9,7.9h-28.9c-4.3,0-7.9-3.6-7.9-7.9l0,0
	C438.6,246.3,442.2,242.8,446.5,242.8z"/>
<path class="st0" d="M414.5,242.8h4.6c4.3,0,7.9,3.6,7.9,7.9l0,0c0,4.3-3.6,7.9-7.9,7.9h-4.6c-4.3,0-7.9-3.6-7.9-7.9l0,0
	C406.6,246.3,410.2,242.8,414.5,242.8z"/>
<path class="st0" d="M388.4,345.9h87c4.3,0,7.9,3.6,7.9,7.9l0,0c0,4.3-3.6,7.9-7.9,7.9h-87c-4.3,0-7.9-3.6-7.9-7.9l0,0
	C380.5,349.4,384.1,345.9,388.4,345.9z"/>
<path class="st0" d="M390.7,206.4h83.6c4.3,0,7.9,3.6,7.9,7.9l0,0c0,4.3-3.6,7.9-7.9,7.9h-83.6c-4.3,0-7.9-3.6-7.9-7.9l0,0
	C382.8,209.9,386.4,206.4,390.7,206.4z"/>
<path class="st0" d="M428.8,313.4h45.5c4.3,0,7.9,3.6,7.9,7.9l0,0c0,4.3-3.6,7.9-7.9,7.9h-45.5c-4.3,0-7.9-3.6-7.9-7.9l0,0
	C420.9,316.9,424.5,313.4,428.8,313.4z"/>
</svg>
