<?xml version="1.0" encoding="iso-8859-1"?>
<!-- Generator: Adobe Illustrator 19.0.0, SVG Export Plug-In . SVG Version: 6.00 Build 0)  -->
<svg version="1.1" id="Layer_1" xmlns="http://www.w3.org/2000/svg" xmlns:xlink="http://www.w3.org/1999/xlink" x="0px" y="0px"
	 viewBox="0 0 496 496" style="enable-background:new 0 0 496 496;" xml:space="preserve">
<g>
	<g>
		<path d="M456,16c-12.512,0-24.32,6.032-31.84,16h-8.976C411.472,13.768,395.312,0,376,0H120c-19.312,0-35.472,13.768-39.192,32
			h-8.976C64.32,22.032,52.504,16,40,16C17.944,16,0,33.944,0,56c0,22.056,17.944,40,40,40c12.504,0,24.32-6.032,31.832-16H80v320v8
			v16h16v-16h16v16h16v-16h16v64v8v16h16v-16h16v16h16v-16h16v16h16v-16h16v16h16v-16h16v16h16v-16h16v16h16v-16h16v16h16v-16h16v16
			h16v-16h16v16h16v-16v-8V80h8.16c7.52,9.968,19.328,16,31.84,16c22.056,0,40-17.944,40-40C496,33.944,478.056,16,456,16z M120,16
			c10.416,0,19.216,6.712,22.528,16H97.48C100.784,22.712,109.584,16,120,16z M144,392H96V80h48V392z M144,64H62.96l-2.312,3.976
			C56.264,75.512,48.544,80,40,80c-13.232,0-24-10.768-24-24s10.768-24,24-24c8.544,0,16.264,4.496,20.648,12.024L62.96,48H144V64z
			 M352,464h-16v-32h-16v32H160V40c0-9-2.984-17.312-8.016-24H296c13.232,0,24,10.768,24,24v376h16V40c0-9.04-3.128-17.296-8.208-24
			H328c13.232,0,24,10.768,24,24V464z M400,464h-32V40c0-9.04-3.128-17.296-8.208-24H376c13.232,0,24,10.768,24,24V464z M456,80
			c-8.544,0-16.264-4.488-20.648-12.024L433.04,64H416V48h17.04l2.312-3.976C439.736,36.496,447.456,32,456,32
			c13.232,0,24,10.768,24,24S469.232,80,456,80z"/>
	</g>
</g>
<g>
</g>
<g>
</g>
<g>
</g>
<g>
</g>
<g>
</g>
<g>
</g>
<g>
</g>
<g>
</g>
<g>
</g>
<g>
</g>
<g>
</g>
<g>
</g>
<g>
</g>
<g>
</g>
<g>
</g>
</svg>
