<?xml version="1.0" encoding="iso-8859-1"?>
<!-- Generator: Adobe Illustrator 17.1.0, SVG Export Plug-In . SVG Version: 6.00 Build 0)  -->
<!DOCTYPE svg PUBLIC "-//W3C//DTD SVG 1.1//EN" "http://www.w3.org/Graphics/SVG/1.1/DTD/svg11.dtd">
<svg version="1.1" id="Capa_1" xmlns="http://www.w3.org/2000/svg" xmlns:xlink="http://www.w3.org/1999/xlink" x="0px" y="0px"
	 viewBox="0 0 392.065 392.065" style="enable-background:new 0 0 392.065 392.065;" xml:space="preserve">
<path id="XMLID_768_" d="M193.092,83.333c0.399,0.054,0.801,0.081,1.201,0.081c1.45,0,2.885-0.351,4.18-1.029
	c16.973-8.9,26.14-27.568,22.811-46.454c-3.331-18.884-18.33-33.292-37.323-35.85c-1.847-0.248-3.729,0.083-5.38,0.949
	c-16.974,8.899-26.141,27.567-22.812,46.454C159.098,66.367,174.097,80.774,193.092,83.333z M184.429,18.47
	c9.813,2.458,17.335,10.422,19.128,20.586c1.792,10.165-2.554,20.221-10.934,25.887c-9.813-2.458-17.336-10.421-19.128-20.585
	C171.703,34.192,176.048,24.135,184.429,18.47z M265.401,334.035H60.636V196.18l27.087-27.085l10.291,10.292
	c3.516,3.515,9.213,3.515,12.729,0c3.515-3.515,3.515-9.213,0-12.728l-54.554-54.554c-3.516-3.515-9.213-3.514-12.729,0
	c-3.515,3.515-3.515,9.213,0,12.728l31.534,31.534l-29.723,29.721c-1.688,1.688-2.636,3.977-2.636,6.364v142.13
	c-13.315,2.626-23.389,14.393-23.389,28.468c0,15.999,13.015,29.015,29.013,29.015h217.141c15.999,0,29.015-13.016,29.015-29.015
	C294.415,347.051,281.4,334.035,265.401,334.035z M265.401,374.065H48.26c-6.072,0-11.013-4.941-11.013-11.015
	c0-6.073,4.94-11.015,11.013-11.015h217.141c6.073,0,11.015,4.941,11.015,11.015C276.415,369.124,271.474,374.065,265.401,374.065z
	 M82.188,109.561c-3.176-3.824-2.65-9.498,1.174-12.674c3.821-3.176,9.497-2.651,12.674,1.173l1.981,2.393
	c12.256,14.813,16.842,20.355,35.458,22.796c13.33,1.75,39.793-12.027,63.146-24.179c28.386-14.771,55.198-28.723,74.54-26.416
	c26.329,3.144,35.951,14.752,49.27,30.82l1.517,1.828c3.176,3.823,2.651,9.498-1.172,12.674c-3.824,3.176-9.498,2.651-12.674-1.172
	l-1.529-1.843c-12.602-15.203-18.354-22.142-37.545-24.434c-11.845-1.415-33.213,8.617-53.923,19.24
	c1.414,4.234,2.96,8.759,4.568,13.466c3.902,11.421,8.325,24.366,12.229,37.21c1.03,3.388,1.996,6.492,2.884,9.348
	c5.517,17.735,8.556,27.504,5.31,37.221c-3.193,9.557-11.145,15.782-26.987,28.185c-10.706,8.383-11.246,12.151-9.63,67.202
	l0.261,8.959c0.069,2.431-0.847,4.786-2.542,6.53c-1.694,1.744-4.022,2.728-6.454,2.728h-20.031c-4.971,0-9-4.029-9-9s4.029-9,9-9
	h10.766c-0.816-27.806-1.26-43.16,0.459-54.38c2.12-13.836,7.723-20.67,16.075-27.21c12.182-9.536,19.533-15.292,21.012-19.715
	c1.406-4.21-1.165-12.477-5.425-26.171c-0.898-2.89-1.876-6.03-2.918-9.459c-3.814-12.551-8.186-25.341-12.041-36.625
	c-1.285-3.763-2.532-7.41-3.708-10.9c-25.967,13.455-50.212,25.249-67.798,22.942c-25.632-3.361-34.127-13.628-46.985-29.168
	L82.188,109.561z M372.818,239.788c0,4.971-4.029,9-9,9h-15.724c-18.941,11.815-35.487,17.647-50.17,17.648
	c-3.914,0-7.692-0.414-11.353-1.24c-15.003-3.385-27.607-13.577-38.531-31.157c-2.623-4.222-1.327-9.771,2.895-12.395
	c4.223-2.624,9.771-1.327,12.395,2.895c8.362,13.458,17.007,20.798,27.204,23.099c12.99,2.933,29.37-2.116,50.088-15.422
	c1.45-0.932,3.139-1.427,4.863-1.427h18.333C368.788,230.788,372.818,234.817,372.818,239.788z"/>
<g>
</g>
<g>
</g>
<g>
</g>
<g>
</g>
<g>
</g>
<g>
</g>
<g>
</g>
<g>
</g>
<g>
</g>
<g>
</g>
<g>
</g>
<g>
</g>
<g>
</g>
<g>
</g>
<g>
</g>
</svg>
